<svg width="34" height="30" viewBox="0 0 34 30" fill="none" xmlns="http://www.w3.org/2000/svg">
<path fill-rule="evenodd" clip-rule="evenodd" d="M31.5899 1.19242C32.0871 1.19242 32.5641 1.38997 32.9157 1.7416C33.2673 2.09323 33.4649 2.57014 33.4649 3.06742V11.0224C33.4649 11.5197 33.2673 11.9966 32.9157 12.3482C32.5641 12.6999 32.0871 12.8974 31.5899 12.8974H23.6349C23.1376 12.8974 22.6607 12.6999 22.309 12.3482C21.9574 11.9966 21.7599 11.5197 21.7599 11.0224C21.7599 10.5251 21.9574 10.0482 22.309 9.6966C22.6607 9.34497 23.1376 9.14742 23.6349 9.14742H27.0599L24.9599 7.04492C23.7397 5.82429 22.255 4.90078 20.6207 4.34584C18.9864 3.7909 17.2464 3.61943 15.5352 3.84468C13.8241 4.06994 12.1877 4.68588 10.7527 5.64485C9.3177 6.60382 8.1226 7.8801 7.25986 9.37492C7.01122 9.8059 6.60156 10.1205 6.121 10.2494C5.64044 10.3783 5.12834 10.3111 4.69736 10.0624C4.26639 9.81378 3.95183 9.40412 3.8229 8.92356C3.69397 8.443 3.76122 7.9309 4.00986 7.49992C5.16032 5.50695 6.75391 3.80539 8.6673 2.52692C10.5807 1.24846 12.7626 0.427367 15.0441 0.12719C17.3256 -0.172987 19.6457 0.0557987 21.8246 0.795843C24.0036 1.53589 25.983 2.76735 27.6099 4.39492L29.7149 6.49492V3.06742C29.7149 2.57014 29.9124 2.09323 30.264 1.7416C30.6157 1.38997 31.0926 1.19242 31.5899 1.19242ZM29.3124 19.9424C29.7418 20.1913 30.055 20.6002 30.1834 21.0796C30.3118 21.559 30.2449 22.0698 29.9974 22.4999C28.8467 24.4927 27.2529 26.1941 25.3394 27.4723C23.4259 28.7505 21.244 29.5713 18.9625 29.8713C16.681 30.1712 14.361 29.9422 12.1822 29.202C10.0033 28.4617 8.024 27.2301 6.39736 25.6024L4.29736 23.5024V26.9299C4.29736 27.4272 4.09982 27.9041 3.74819 28.2558C3.39656 28.6074 2.91964 28.8049 2.42236 28.8049C1.92508 28.8049 1.44817 28.6074 1.09654 28.2558C0.744907 27.9041 0.547363 27.4272 0.547363 26.9299V18.9774C0.547363 18.4801 0.744907 18.0032 1.09654 17.6516C1.44817 17.3 1.92508 17.1024 2.42236 17.1024H10.3749C10.8721 17.1024 11.3491 17.3 11.7007 17.6516C12.0523 18.0032 12.2499 18.4801 12.2499 18.9774C12.2499 19.4747 12.0523 19.9516 11.7007 20.3033C11.3491 20.6549 10.8721 20.8524 10.3749 20.8524H6.94986L9.05236 22.9549C10.2726 24.1756 11.7572 25.0991 13.3915 25.654C15.0258 26.2089 16.7658 26.3804 18.477 26.1552C20.1882 25.9299 21.8245 25.314 23.2595 24.355C24.6945 23.396 25.8896 22.1197 26.7524 20.6249C26.8758 20.4118 27.04 20.2252 27.2356 20.0755C27.4312 19.9259 27.6543 19.8163 27.8922 19.7529C28.1302 19.6895 28.3783 19.6737 28.6224 19.7062C28.8665 19.7387 29.0993 19.819 29.3124 19.9424Z" fill="white"/>
</svg>
