<svg width="66" height="66" viewBox="0 0 66 66" fill="none" xmlns="http://www.w3.org/2000/svg">
  <path
    d="M10.5599 33.0001C10.5599 20.5921 20.5919 10.5601 32.9999 10.5601C45.4079 10.5601 55.4399 20.5921 55.4399 33.0001C55.4399 45.4081 45.4079 55.4401 32.9999 55.4401C20.5919 55.4401 10.5599 45.4081 10.5599 33.0001ZM52.7999 33.0001C52.7999 22.0441 43.9559 13.2001 32.9999 13.2001C22.0439 13.2001 13.1999 22.0441 13.1999 33.0001C13.1999 43.9561 22.0439 52.8001 32.9999 52.8001C43.9559 52.8001 52.7999 43.9561 52.7999 33.0001Z"
    fill="white" />
  <path d="M30.756 43.9561L41.712 33L30.756 22.044L32.604 20.196L45.408 33L32.604 45.8041L30.756 43.9561Z"
    fill="white" />
  <path d="M43.5599 31.6799V34.3199H21.1199V31.6799H43.5599Z" fill="white" />
</svg>