<svg width="35" height="35" viewBox="0 0 35 35" fill="none" xmlns="http://www.w3.org/2000/svg">
  <path
    d="M18.9992 2.91663C20.6398 2.921 21.4725 2.92975 22.1915 2.95017L22.4744 2.96038C22.801 2.97204 23.1233 2.98663 23.5127 3.00413C25.0644 3.07704 26.1231 3.32204 27.0521 3.68225C28.0146 4.05267 28.8254 4.55433 29.6363 5.36371C30.3781 6.09249 30.9519 6.9744 31.3177 7.94788C31.6779 8.87683 31.9229 9.93558 31.9958 11.4887C32.0133 11.8766 32.0279 12.1989 32.0396 12.527L32.0483 12.81C32.0702 13.5275 32.079 14.3602 32.0819 16.0008L32.0833 17.0887V18.9991C32.0869 20.0628 32.0757 21.1266 32.0498 22.19L32.041 22.4729C32.0294 22.801 32.0148 23.1233 31.9973 23.5112C31.9244 25.0643 31.6765 26.1216 31.3177 27.052C30.9519 28.0255 30.3781 28.9074 29.6363 29.6362C28.9075 30.3781 28.0256 30.9519 27.0521 31.3177C26.1231 31.6779 25.0644 31.9229 23.5127 31.9958L22.4744 32.0395L22.1915 32.0483C21.4725 32.0687 20.6398 32.0789 18.9992 32.0818L17.9112 32.0833H16.0023C14.9381 32.087 13.8739 32.0759 12.81 32.0497L12.5271 32.041C12.1809 32.0279 11.8348 32.0128 11.4887 31.9958C9.93708 31.9229 8.87833 31.6779 7.94791 31.3177C6.97496 30.9517 6.09356 30.3779 5.3652 29.6362C4.62283 28.9076 4.04849 28.0256 3.68229 27.052C3.32208 26.1231 3.07708 25.0643 3.00416 23.5112L2.96041 22.4729L2.95312 22.19C2.92624 21.1266 2.91408 20.0629 2.91666 18.9991V16.0008C2.91263 14.9371 2.92332 13.8734 2.94875 12.81L2.95895 12.527C2.97062 12.1989 2.9852 11.8766 3.0027 11.4887C3.07562 9.93558 3.32062 8.87829 3.68083 7.94788C4.04788 6.974 4.62324 6.09205 5.36666 5.36371C6.09459 4.62222 6.97548 4.0484 7.94791 3.68225C8.87833 3.32204 9.93562 3.07704 11.4887 3.00413C11.8767 2.98663 12.2004 2.97204 12.5271 2.96038L12.81 2.95163C13.8734 2.92572 14.9371 2.91453 16.0008 2.91808L18.9992 2.91663ZM17.5 10.2083C15.5661 10.2083 13.7115 10.9765 12.344 12.344C10.9766 13.7114 10.2083 15.5661 10.2083 17.5C10.2083 19.4338 10.9766 21.2885 12.344 22.6559C13.7115 24.0234 15.5661 24.7916 17.5 24.7916C19.4339 24.7916 21.2885 24.0234 22.656 22.6559C24.0234 21.2885 24.7917 19.4338 24.7917 17.5C24.7917 15.5661 24.0234 13.7114 22.656 12.344C21.2885 10.9765 19.4339 10.2083 17.5 10.2083ZM17.5 13.125C18.0745 13.1249 18.6435 13.2379 19.1743 13.4577C19.7051 13.6775 20.1875 13.9997 20.5938 14.4059C21.0001 14.812 21.3225 15.2943 21.5424 15.825C21.7624 16.3558 21.8756 16.9247 21.8757 17.4992C21.8758 18.0738 21.7628 18.6427 21.543 19.1735C21.3232 19.7044 21.001 20.1867 20.5948 20.593C20.1886 20.9994 19.7064 21.3217 19.1756 21.5417C18.6449 21.7616 18.076 21.8749 17.5015 21.875C16.3411 21.875 15.2283 21.414 14.4079 20.5935C13.5874 19.7731 13.1265 18.6603 13.1265 17.5C13.1265 16.3396 13.5874 15.2268 14.4079 14.4064C15.2283 13.5859 16.3411 13.125 17.5015 13.125M25.1577 8.02079C24.6742 8.02079 24.2106 8.21285 23.8687 8.55471C23.5268 8.89657 23.3348 9.36024 23.3348 9.84371C23.3348 10.3272 23.5268 10.7908 23.8687 11.1327C24.2106 11.4746 24.6742 11.6666 25.1577 11.6666C25.6412 11.6666 26.1048 11.4746 26.4467 11.1327C26.7886 10.7908 26.9806 10.3272 26.9806 9.84371C26.9806 9.36024 26.7886 8.89657 26.4467 8.55471C26.1048 8.21285 25.6412 8.02079 25.1577 8.02079Z"
    fill="white" />
</svg>