<svg width="35" height="35" viewBox="0 0 35 35" fill="none" xmlns="http://www.w3.org/2000/svg">
  <path fill-rule="evenodd" clip-rule="evenodd"
    d="M7.16714 2.5C6.06195 2.5 5.00202 2.93904 4.22053 3.72053C3.43904 4.50202 3 5.56195 3 6.66714V27.5029C3 28.6081 3.43904 29.668 4.22053 30.4495C5.00202 31.231 6.06195 31.67 7.16714 31.67H28.0029C29.1081 31.67 30.168 31.231 30.9495 30.4495C31.731 29.668 32.17 28.6081 32.17 27.5029V6.66714C32.17 5.56195 31.731 4.50202 30.9495 3.72053C30.168 2.93904 29.1081 2.5 28.0029 2.5H7.16714ZM9.46324 11.4531C10.1236 11.4531 10.7569 11.1908 11.2238 10.7238C11.6908 10.2569 11.9531 9.62359 11.9531 8.96324C11.9531 8.30289 11.6908 7.66958 11.2238 7.20264C10.7569 6.7357 10.1236 6.47337 9.46324 6.47337C8.80289 6.47337 8.16958 6.7357 7.70264 7.20264C7.2357 7.66958 6.97337 8.30289 6.97337 8.96324C6.97337 9.62359 7.2357 10.2569 7.70264 10.7238C8.16958 11.1908 8.80289 11.4531 9.46324 11.4531ZM11.5468 27.1132V13.4054H7.37967V27.1132H11.5468ZM14.3138 13.4054H18.4809V15.241C19.0956 14.2784 20.4457 12.9824 22.9564 12.9824C25.9526 12.9824 27.5799 14.9681 27.5799 18.7456C27.5799 18.9269 27.5966 19.7541 27.5966 19.7541V27.1111H23.4294V19.7561C23.4294 18.7456 23.2169 16.76 20.9708 16.76C18.7226 16.76 18.533 19.2561 18.4809 20.8896V27.1111H14.3138V13.4054Z"
    fill="white" />
</svg>