<svg width="35" height="35" viewBox="0 0 35 35" fill="none" xmlns="http://www.w3.org/2000/svg">
  <path
    d="M28.6974 2.5H6.47264C4.5573 2.5 3 4.05777 3 5.97264V28.1974C3 30.1122 4.55777 31.67 6.47264 31.67H28.6974C30.6122 31.67 32.17 30.1122 32.17 28.1974V5.97264C32.17 4.0573 30.6122 2.5 28.6974 2.5ZM25.9234 15.2256C25.7644 15.2413 25.6047 15.2495 25.4444 15.2501C24.5803 15.2503 23.7298 15.0353 22.9696 14.6245C22.2094 14.2137 21.5635 13.6201 21.0901 12.8972V20.9096C21.0902 22.081 20.7429 23.2261 20.0922 24.2001C19.4415 25.1741 18.5165 25.9333 17.4343 26.3816C16.3521 26.8299 15.1612 26.9472 14.0124 26.7187C12.8635 26.4902 11.8081 25.9261 10.9798 25.0978C10.1516 24.2695 9.58748 23.2142 9.35898 22.0653C9.13047 20.9164 9.2478 19.7256 9.69611 18.6434C10.1444 17.5612 10.9036 16.6362 11.8776 15.9855C12.8516 15.3348 13.9967 14.9875 15.1681 14.9876C15.2919 14.9876 15.4128 14.9984 15.5342 15.0064V17.9248C15.4128 17.9102 15.2933 17.8881 15.1681 17.8881C14.7712 17.8881 14.3782 17.9663 14.0115 18.1182C13.6448 18.2701 13.3116 18.4927 13.031 18.7734C12.7503 19.054 12.5277 19.3872 12.3758 19.7539C12.2239 20.1206 12.1457 20.5136 12.1457 20.9105C12.1457 21.3074 12.2239 21.7004 12.3758 22.0671C12.5277 22.4338 12.7503 22.767 13.031 23.0477C13.3116 23.3283 13.6448 23.5509 14.0115 23.7028C14.3782 23.8547 14.7712 23.9329 15.1681 23.9329C16.8379 23.9329 18.3124 22.6174 18.3124 20.9481L18.3415 7.3394H21.1334C21.261 8.55246 21.8109 9.68208 22.6871 10.5308C23.5632 11.3794 24.7097 11.8932 25.9262 11.9821V15.2256"
    fill="white" />
</svg>