<svg width="35" height="35" viewBox="0 0 35 35" fill="none" xmlns="http://www.w3.org/2000/svg">
  <path
    d="M26.25 4.375C27.2076 4.375 28.1557 4.5636 29.0404 4.93005C29.9251 5.29649 30.7289 5.83359 31.406 6.51068C32.0831 7.18777 32.6202 7.9916 32.9866 8.87627C33.3531 9.76093 33.5417 10.7091 33.5417 11.6667V23.3333C33.5417 24.2909 33.3531 25.2391 32.9866 26.1237C32.6202 27.0084 32.0831 27.8122 31.406 28.4893C30.7289 29.1664 29.9251 29.7035 29.0404 30.07C28.1557 30.4364 27.2076 30.625 26.25 30.625H8.75001C7.79245 30.625 6.84427 30.4364 5.95961 30.07C5.07494 29.7035 4.27112 29.1664 3.59402 28.4893C2.22657 27.1219 1.45834 25.2672 1.45834 23.3333V11.6667C1.45834 9.7328 2.22657 7.87813 3.59402 6.51068C4.96148 5.14323 6.81614 4.375 8.75001 4.375H26.25ZM13.125 13.125V21.875C13.1252 22.1329 13.1938 22.3861 13.3238 22.6089C13.4538 22.8316 13.6405 23.0159 13.865 23.143C14.0894 23.27 14.3435 23.3353 14.6014 23.3321C14.8593 23.3289 15.1117 23.2574 15.3329 23.1248L22.6246 18.7498C22.8402 18.6201 23.0186 18.4369 23.1425 18.2179C23.2663 17.9989 23.3314 17.7516 23.3314 17.5C23.3314 17.2484 23.2663 17.0011 23.1425 16.7821C23.0186 16.5631 22.8402 16.3799 22.6246 16.2502L15.3329 11.8752C15.1117 11.7426 14.8593 11.6711 14.6014 11.6679C14.3435 11.6647 14.0894 11.73 13.865 11.857C13.6405 11.9841 13.4538 12.1684 13.3238 12.3911C13.1938 12.6139 13.1252 12.8671 13.125 13.125Z"
    fill="white" />
</svg>